<?xml version="1.0" encoding="UTF-8"?>
<svg width="205.387756px" height="76.7343267px" viewBox="0 0 205.387756 76.7343267" version="1.1" xmlns="http://www.w3.org/2000/svg" xmlns:xlink="http://www.w3.org/1999/xlink">
    <title>go</title>
    <g id="Page-1" stroke="none" stroke-width="1" fill="none" fill-rule="evenodd">
        <g id="go" fill="#00ACD7" fill-rule="nonzero">
            <path d="M15.5,23.2343267 C15.1,23.2343267 15,23.0343267 15.2,22.7343267 L17.3,20.0343267 C17.5,19.7343267 18,19.5343267 18.4,19.5343267 L54.1,19.5343267 C54.5,19.5343267 54.6,19.8343267 54.4,20.1343267 L52.7,22.7343267 C52.5,23.0343267 52,23.3343267 51.7,23.3343267 L15.5,23.2343267 Z" id="Path"></path>
            <path d="M0.4,32.4343267 C0,32.4343267 -0.1,32.2343267 0.1,31.9343267 L2.2,29.2343267 C2.4,28.9343267 2.9,28.7343267 3.3,28.7343267 L48.9,28.7343267 C49.3,28.7343267 49.5,29.0343267 49.4,29.3343267 L48.6,31.7343267 C48.5,32.1343267 48.1,32.3343267 47.7,32.3343267 L0.4,32.4343267 Z" id="Path"></path>
            <path d="M24.6,41.6343267 C24.2,41.6343267 24.1,41.3343267 24.3,41.0343267 L25.7,38.5343267 C25.9,38.2343267 26.3,37.9343267 26.7,37.9343267 L46.7,37.9343267 C47.1,37.9343267 47.3,38.2343267 47.3,38.6343267 L47.1,41.0343267 C47.1,41.4343267 46.7,41.7343267 46.4,41.7343267 L24.6,41.6343267 Z" id="Path"></path>
            <g id="Group" transform="translate(54.514927, 0.000000)">
                <path d="M73.8850728,21.4343267 C67.5850728,23.0343267 63.2850728,24.2343267 57.0850728,25.8343267 C55.5850728,26.2343267 55.4850728,26.3343267 54.1850728,24.8343267 C52.6850728,23.1343267 51.5850728,22.0343267 49.4850728,21.0343267 C43.1850728,17.9343267 37.0850728,18.8343267 31.3850728,22.5343267 C24.5850728,26.9343267 21.0850728,33.4343267 21.1850728,41.5343267 C21.2850728,49.5343267 26.7850728,56.1343267 34.6850728,57.2343267 C41.4850728,58.1343267 47.1850728,55.7343267 51.6850728,50.6343267 C52.5850728,49.5343267 53.3850728,48.3343267 54.3850728,46.9343267 C50.7850728,46.9343267 46.2850728,46.9343267 35.0850728,46.9343267 C32.9850728,46.9343267 32.4850728,45.6343267 33.1850728,43.9343267 C34.4850728,40.8343267 36.8850728,35.6343267 38.2850728,33.0343267 C38.5850728,32.4343267 39.2850728,31.4343267 40.7850728,31.4343267 C45.8850728,31.4343267 64.6850728,31.4343267 77.1850728,31.4343267 C76.9850728,34.1343267 76.9850728,36.8343267 76.5850728,39.5343267 C75.4850728,46.7343267 72.7850728,53.3343267 68.3850728,59.1343267 C61.1850728,68.6343267 51.7850728,74.5343267 39.8850728,76.1343267 C30.0850728,77.4343267 20.9850728,75.5343267 12.9850728,69.5343267 C5.58507278,63.9343267 1.38507278,56.5343267 0.285072778,47.3343267 C-1.01492722,36.4343267 2.18507278,26.6343267 8.78507278,18.0343267 C15.8850728,8.73432674 25.2850728,2.83432674 36.7850728,0.734326735 C46.1850728,-0.965673265 55.1850728,0.134326735 63.2850728,5.63432674 C68.5850728,9.13432674 72.3850728,13.9343267 74.8850728,19.7343267 C75.4850728,20.6343267 75.0850728,21.1343267 73.8850728,21.4343267 Z" id="Path"></path>
                <path d="M106.985073,76.7343267 C97.8850728,76.5343267 89.5850728,73.9343267 82.5850728,67.9343267 C76.6850728,62.8343267 72.9850728,56.3343267 71.7850728,48.6343267 C69.9850728,37.3343267 73.0850728,27.3343267 79.8850728,18.4343267 C87.1850728,8.83432674 95.9850728,3.83432674 107.885073,1.73432674 C118.085073,-0.0656732647 127.685073,0.934326735 136.385073,6.83432674 C144.285073,12.2343267 149.185073,19.5343267 150.485073,29.1343267 C152.185073,42.6343267 148.285073,53.6343267 138.985073,63.0343267 C132.385073,69.7343267 124.285073,73.9343267 114.985073,75.8343267 C112.285073,76.3343267 109.585073,76.4343267 106.985073,76.7343267 Z M130.785073,36.3343267 C130.685073,35.0343267 130.685073,34.0343267 130.485073,33.0343267 C128.685073,23.1343267 119.585073,17.5343267 110.085073,19.7343267 C100.785073,21.8343267 94.7850728,27.7343267 92.5850728,37.1343267 C90.7850728,44.9343267 94.5850728,52.8343267 101.785073,56.0343267 C107.285073,58.4343267 112.785073,58.1343267 118.085073,55.4343267 C125.985073,51.3343267 130.285073,44.9343267 130.785073,36.3343267 Z" id="Shape"></path>
            </g>
        </g>
    </g>
</svg>