<svg width="271" height="271" viewBox="0 0 271 271" fill="none" xmlns="http://www.w3.org/2000/svg">
<line x1="92.6132" y1="115.57" x2="135.04" y2="157.996" stroke="#668A60" stroke-width="30" stroke-linecap="round"/>
<path fill-rule="evenodd" clip-rule="evenodd" d="M135.289 0C118.795 0.106255 102.334 6.45182 89.7487 19.0367L19.0381 89.7474C-6.34602 115.131 -6.34602 156.287 19.0381 181.671L89.7487 252.382C102.334 264.967 118.795 271.312 135.289 271.419V241.417C126.473 241.312 117.689 237.896 110.962 231.169L40.2513 160.458C26.5829 146.79 26.5829 124.629 40.2513 110.961L110.962 40.2499C117.689 33.5229 126.473 30.1066 135.289 30.0012V0Z" fill="#668A60"/>
<path fill-rule="evenodd" clip-rule="evenodd" d="M251.673 62.5356C257.53 56.6777 257.53 47.1802 251.673 41.3224C245.815 35.4645 236.317 35.4645 230.459 41.3224L135 136.782V172.995C138.839 172.995 142.678 171.531 145.607 168.602L251.673 62.5356Z" fill="#9AD191"/>
<line x1="227.637" y1="86.5034" x2="238.243" y2="97.11" stroke="#668A60" stroke-width="30"/>
<path fill-rule="evenodd" clip-rule="evenodd" d="M181.383 252.383C168.584 265.182 151.775 271.528 135 271.42V241.419C144.097 241.528 153.229 238.111 160.17 231.17L230.881 160.459C244.549 146.791 244.549 124.63 230.881 110.962L227.633 107.714L248.846 86.5013L252.094 89.7487C277.478 115.133 277.478 156.289 252.094 181.673L181.383 252.383ZM160.17 40.2513C153.229 33.3099 144.097 29.8937 135 30.0025V0.00135712C151.775 -0.106707 168.584 6.23886 181.383 19.0381L196.244 33.8985L175.03 55.1117L160.17 40.2513Z" fill="#9AD191"/>
</svg>
